<svg viewBox="0,0,210.08616,278.40882" height="278.40882" width="210.08616" xmlns:xlink="http://www.w3.org/1999/xlink" xmlns="http://www.w3.org/2000/svg" version="1.1"><defs><linearGradient id="color-1" gradientUnits="userSpaceOnUse" y2="186.79477" x2="205.17065" y1="143.84223" x1="212.62274"><stop stop-color="#07003e" offset="0"></stop><stop stop-color="#180e5e" offset="1"></stop></linearGradient><linearGradient id="color-2" gradientUnits="userSpaceOnUse" y2="193.2724" x2="258.73723" y1="152.62323" x1="265.7897"><stop stop-color="#07003e" offset="0"></stop><stop stop-color="#180e5e" offset="1"></stop></linearGradient></defs><g transform="translate(-135.5,-43.68223)"><g style="mix-blend-mode: normal" stroke-dashoffset="0" stroke-dasharray="" stroke-miterlimit="10" stroke-linejoin="miter" data-paper-data="{&quot;isPaintingLayer&quot;:true}"><path stroke-linecap="butt" stroke-width="0" stroke="#000000" fill-rule="nonzero" fill="#ff6d00" d="M135.5,316v-272h209v272z"></path><path stroke-linecap="butt" stroke-width="0" stroke="#000000" fill-rule="nonzero" fill="#ffa000" d="M147.74174,306.25v-252.5h184.51654v252.5z"></path><g><path stroke-linecap="butt" stroke-width="2" stroke="#000000" fill-rule="nonzero" fill="#ffa83a" d="M155.58657,220.34956c4.74186,4.38177 9.66589,8.61502 15.51994,12.73893c2.72865,1.92221 5.48444,3.79417 8.25952,5.63041c-8.50089,14.35594 -22.37245,32.38493 -36.77084,51.88465l-1.69937,-8.21362v-3.67333l0.20143,-0.37767l0.5,-2v-0.40758l0.16251,-0.37378l0.31578,-1.89466l0.02171,-0.0208v-0.10945l0.16251,-0.97509l-0.16251,-2.03143v-2.03792l-0.20143,-0.8057l0,-4.03789l0.20143,-0.8057v-1.23106l0.29857,-1.1943v-19.5c0,-1.70446 -0.42643,-3.30933 -1.17843,-4.71372l-0.07157,-0.28628l-0.13184,-0.07534c-0.04684,-0.07937 -0.09476,-0.15804 -0.14371,-0.23599c5.21884,-5.72101 10.12813,-10.91257 14.71631,-15.25269z"></path><path stroke-linecap="butt" stroke-width="2" stroke="#000000" fill-rule="nonzero" fill="#ffa83a" d=""></path><path stroke-linecap="butt" stroke-width="2" stroke="#000000" fill-rule="nonzero" fill="#ffa83a" d=""></path><g stroke-linecap="butt" fill-rule="nonzero"><path stroke-width="2" stroke="#000000" fill="#ffa83a" d="M159.27892,273.46224c6.59077,-21.20963 10.46843,-41.19807 16.58002,-47.97252c7.98833,-8.85475 25.32463,-5.94838 33.40353,-4.54673c12.80414,2.22146 40.54711,1.79938 47.59858,24.40746c2.04638,6.561 -4.51404,22.94492 -5.65182,41.08205c-0.33112,5.27818 -0.9134,14.42761 -1.72138,24.98108h-57.59203l-1.55951,0.38988l-1.4316,0.11012l-0.00889,0l-0.00395,0.00099l-0.15832,0.01218l-0.32883,0.10961l-0.70319,0.1758h-1.23106l-4,1l-1.30485,0.69592l-1.41475,0.43058l-1.22401,0.73441l-0.55639,0.1391l-0.27757,0.14804l-0.73756,-0.05674l-1.55951,-0.38988h-4.76894l-0.8057,-0.20143h-0.24383l-0.22036,-0.10438l-2.26666,-0.45333l-2.7042,-0.67605l-0.01817,-0.00908l-0.16351,-0.03633l-0.88327,-0.22082h-0.11041l-1.08582,-0.24129l-2.22912,-0.55728h-0.27864l-0.28038,-0.06231l-0.09346,0.06231h-4.72475l-2.9605,-0.98683l-0.91622,-0.07048l-0.61863,-0.30932l-1.09657,-1.94009c4.06953,-15.18194 8.3872,-29.32089 10.35226,-35.64462z"></path><path stroke-width="0" stroke="none" fill="#ffd07e" d="M161.79494,297.78606c12.4965,-24.98341 18.61159,-55.49269 48.8595,-48.21692c32.84847,7.90132 26.05908,32.21237 29.16111,61.84444h-47.91973l-1.55951,0.38988l-1.4316,0.11012l-0.00889,0l-0.00395,0.00099l-0.15832,0.01218l-0.32883,0.10961l-0.70319,0.1758h-1.23106l-4,1l-1.30485,0.69592l-1.41475,0.43058l-1.22401,0.73441l-0.55639,0.1391l-0.27757,0.14804l-0.73756,-0.05674l-1.55951,-0.38988h-4.76894l-0.8057,-0.20143h-0.24383l-0.22036,-0.10438l-2.26666,-0.45333l-2.7042,-0.67605l-0.01817,-0.00908l-0.16351,-0.03633l-0.88327,-0.22082h-0.11041l-1.08582,-0.24129l-2.22912,-0.55728h-0.27864l-0.28038,-0.06231l-0.09346,0.06231l-3.12501,0c1.54726,-5.03099 3.42887,-10.13377 5.67662,-14.62752z"></path></g><g stroke-linecap="butt" stroke-width="2" stroke="#000000" fill-rule="nonzero"><path fill="#ffc900" d="M199.15838,306.17502c3.16547,0.78704 5.73784,2.72202 7.36977,5.23856h-14.63234l-1.55951,0.38988l-1.4316,0.11012l-0.00889,0l-0.00395,0.00099l-0.15832,0.01218l-0.32883,0.10961l-0.70319,0.1758h-1.23106l-1.19994,0.29999c2.44943,-4.98486 8.19061,-7.75365 13.88787,-6.33712z"></path><path fill="#cc5252" d="M292.44728,259.85243c-0.31497,1.18061 -20.6818,9.35274 -38.09353,19.394c-24.34215,14.038 -48.49325,30.84539 -53.26453,29.51354c-5.61685,-1.56786 -19.42202,-26.83645 -33.66401,-49.80921c-11.27721,-18.19051 -24.24457,-35.19508 -23.68955,-36.07298c4.20347,-6.6488 42.15273,-11.12745 79.21983,-1.91135c37.06708,9.21611 71.62221,30.90048 69.49178,38.886z"></path><path fill="#fffcf9" d="M290.96898,260.18799c-0.31497,1.18061 -20.6818,9.35275 -38.09353,19.394c-24.34215,14.038 -48.49325,30.84538 -53.26453,29.51354c-5.61685,-1.56786 -19.42202,-26.83645 -33.66401,-49.80921c-11.27721,-18.19051 -24.24457,-35.19508 -23.68955,-36.07298c2.56843,-4.06259 17.73599,-7.31496 37.60301,-7.12798c0,0 12.91322,15.58046 18.22306,23.45687c5.04504,7.48359 12.88232,22.68341 12.88232,22.68341c0,0 15.67425,-9.74051 30.79625,-16.85028c10.22704,-4.80836 21.86355,-7.77254 21.86902,-8.15886c17.16307,8.84717 28.59043,18.27674 27.33794,22.97149z"></path><path fill="#56cc51" d="M291.5587,260.05108c-0.31497,1.18061 -20.6818,9.35275 -38.09353,19.394c-24.34215,14.038 -48.49325,30.84538 -53.26453,29.51354c-5.61685,-1.56786 -19.42203,-26.83645 -33.66401,-49.80921c-11.27721,-18.19051 -24.24456,-35.19508 -23.68954,-36.07298c1.58743,-2.51091 17.3354,-5.98348 17.3354,-5.98348c0,0 17.80242,24.53993 25.33937,36.79026c7.06521,11.48356 18.55865,34.56023 18.55865,34.56023c0,0 26.90424,-16.61204 40.68627,-23.36416c12.72726,-6.23536 39.09379,-15.72182 39.09379,-15.72182c0,0 8.3635,8.1996 7.69813,10.69364z"></path></g><g stroke-linecap="butt" stroke-width="2" stroke="#000000" fill-rule="nonzero" data-paper-data="{&quot;index&quot;:null}"><path fill="#ffa83a" d="M267.54907,146.54287c-8.69209,-3.62459 -21.51099,-28.84813 -22.0934,-36.88614c-0.5824,-8.038 -2.90723,-13.51069 5.45033,-15.44556c4.91588,-1.1381 26.75273,-6.17356 42.79061,-6.17901c8.22287,-0.00275 11.30381,2.28082 12.77845,4.66273c1.80897,2.92193 0.46746,6.67257 -3.21472,15.81557c-6.11126,15.17467 -19.16168,31.21707 -21.02958,34.3815c-4.81712,8.16065 -5.98959,7.27552 -14.68165,3.65092z"></path><path fill="#ffd07e" d="M259.26135,123.71418c-7.28505,-11.87807 -5.16493,-19.10411 -5.16493,-19.10411c0,0 38.53188,-11.3682 41.68736,-6.54784c3.72865,5.69597 -21.72896,39.31822 -21.72896,39.31822c0,0 -5.1845,2.00102 -14.7935,-13.66627z"></path></g><path stroke-linecap="butt" stroke-width="2" stroke="#000000" fill-rule="nonzero" fill="#ffa83a" d="M283.98043,165.10016c-0.43095,2.48386 0.79333,7.42336 4.38063,9.09402c5.05541,2.35439 13.19354,1.02563 13.9876,1.63485c1.32687,1.01802 -5.69068,18.63493 -21.15273,30.13439c-1.77026,1.31659 -3.78635,2.37485 -5.55085,3.82868c-0.49825,0.41055 6.86813,0.03966 7.21229,2.60278c0.56396,4.20021 -32.69715,23.49403 -71.41636,16.33132c-46.46349,-8.59533 -65.03594,-37.80939 -65.36565,-40.17407c-0.35476,-2.54441 9.93601,-1.16825 9.4925,-1.41217c-9.21377,-5.06771 -15.97277,-38.16258 -14.34888,-39.54676c1.44636,-1.23287 7.27342,3.93831 12.62229,4.19015c4.15147,0.19547 8.13379,-3.91033 8.79744,-7.73548c6.06504,-34.95781 38.14499,-58.58399 71.65258,-52.77055c33.50759,5.81343 55.75418,38.86504 49.68913,73.82286z"></path><path stroke-linecap="butt" stroke-width="2" stroke="#000000" fill-rule="nonzero" fill="#ffffff" d="M224.19928,166.38019c-2.74335,15.81214 -11.6108,22.16918 -22.01562,20.36399c-10.40482,-1.80519 -18.4069,-11.08904 -15.66356,-26.90117c2.74335,-15.81214 10.65999,-29.11734 28.29147,-26.35327c10.4327,1.63551 12.13106,17.07832 9.38771,32.89046z"></path><g stroke-linecap="butt" fill-rule="nonzero"><path stroke-width="2" stroke="#000000" fill="url(#color-1)" d="M223.74264,167.89421c-2.05784,11.86102 -10.3728,20.32308 -18.57199,18.90057c-8.19919,-1.42252 -13.17774,-12.19096 -11.11991,-24.05198c2.05784,-11.86102 10.37281,-20.32308 18.57199,-18.90056c8.19919,1.42252 13.17774,12.19096 11.11991,24.05198z"></path><path stroke-width="2" stroke="#000000" fill="#000000" d="M217.7541,166.85521c-1.26179,7.27279 -6.10411,12.50593 -10.81557,11.6885c-4.71149,-0.81742 -7.50799,-7.37584 -6.24619,-14.64865c1.26179,-7.27279 6.1041,-12.50593 10.81558,-11.6885c4.71149,0.81742 7.50798,7.37584 6.24618,14.64865z"></path><path stroke-width="0" stroke="none" fill="#ffffff" d="M225.02937,169.75617c-0.34722,2.00125 -0.83109,3.77053 -4.17549,3.1903c-3.3444,-0.58025 -5.77412,-2.67295 -5.42691,-4.67419c0.34722,-2.00125 3.33987,-3.1532 6.68426,-2.57295c3.3444,0.58025 3.26535,2.0556 2.91814,4.05684z"></path></g><path stroke-linecap="butt" stroke-width="2" stroke="#000000" fill-rule="nonzero" fill="#ffffff" data-paper-data="{&quot;index&quot;:null}" d="M261.89799,141.35814c15.08161,2.9115 17.29485,17.97424 14.55152,33.78637c-2.74334,15.81214 -12.10437,22.08354 -21.05898,20.52996c-8.95461,-1.55359 -14.11188,-10.34388 -11.36853,-26.156c2.74335,-15.81214 8.95207,-29.88312 17.876,-28.16033z"></path><g stroke-linecap="butt" fill-rule="nonzero"><path stroke-width="2" stroke="#000000" fill="url(#color-2)" d="M275.04021,175.16453c-1.94748,11.22496 -9.24657,19.33212 -16.30297,18.10788c-7.0564,-1.22426 -11.19799,-11.31634 -9.25051,-22.5413c1.94749,-11.22496 9.24658,-19.33214 16.30298,-18.10789c7.0564,1.22426 11.19799,11.31635 9.2505,22.5413z"></path><path stroke-width="2" stroke="#000000" fill="#000000" d="M269.88635,174.27035c-1.19413,6.88279 -5.44923,11.8921 -9.50402,11.18861c-4.0548,-0.70349 -6.37382,-6.85339 -5.17968,-13.73618c1.19413,-6.88279 5.44924,-11.8921 9.50404,-11.18861c4.0548,0.70349 6.37381,6.85338 5.17967,13.73618z"></path><path stroke-width="0" stroke="none" fill="#ffffff" d="M276.12392,176.90338c-0.32859,1.89393 -0.77179,3.57089 -3.65005,3.07152c-2.87826,-0.49937 -4.94519,-2.43951 -4.6166,-4.33343c0.32859,-1.89393 2.92827,-3.02444 5.80653,-2.52508c2.87826,0.49937 2.78872,1.89307 2.46013,3.78699z"></path></g><path stroke-linecap="round" stroke-width="2.5" stroke="#000000" fill-rule="nonzero" fill="#ffa83a" data-paper-data="{&quot;index&quot;:null}" d="M254.75784,105.26263c0,0 18.70575,9.68329 17.49313,19.97409c-1.21262,10.2908 -22.96339,26.44891 -22.96339,26.44891c0,0 1.96977,-5.65465 1.7783,-8.28686c-0.40445,-5.56002 -2.56175,-8.29596 -2.59696,-8.50718c-0.0641,-0.38451 -1.95496,9.99243 -11.04127,15.03996c-8.96357,4.97935 -16.37986,-0.13083 -16.37986,-0.13083c0,0 3.98865,-2.54766 6.87514,-6.00579c2.78535,-3.33697 4.47763,-7.59265 4.18496,-7.38662c-2.57324,1.81123 -8.49504,5.70382 -11.74614,7.44907c-7.96718,4.27693 -16.85009,-0.54434 -16.85009,-0.54434c0,0 8.20078,-3.10538 9.8228,-4.96008c1.71553,-1.96162 4.31943,-6.22373 4.31943,-6.22373"></path><g stroke-linecap="butt" stroke-width="2" stroke="#000000" fill-rule="nonzero"><path fill="#ffd98f" d="M250.92834,214.01452c-1.79897,10.36896 -13.12408,17.0628 -25.29533,14.95115c-12.17124,-2.11166 -20.57965,-12.2292 -18.78068,-22.59814c0.22402,-1.2912 0.59575,-2.52542 1.09844,-3.69275c2.37536,0.17532 4.62735,0.19709 6.52696,0.11223c10.68969,-0.47753 21.61583,-0.762 32.13395,1.35607c1.095,0.22049 2.21368,0.49529 3.35169,0.81143c1.12522,2.85753 1.50498,5.94743 0.96496,9.06001z"></path><path fill="#000000" d="M243.16478,214.54326c-0.93908,5.41271 -8.36567,8.64421 -16.58774,7.2177c-8.22207,-1.4265 -14.12609,-6.97079 -13.18701,-12.3835c0.18665,-1.07581 0.2585,-2.81069 0.48675,-4.74621c0.11443,-0.00423 0.22765,-0.0089 0.33969,-0.01388c10.14192,-0.45306 20.4967,-0.73234 30.51392,1.04908c-0.27161,3.6091 -1.29941,7.34261 -1.56558,8.87681z"></path></g><g stroke-linecap="butt" fill-rule="nonzero"><g stroke-width="2" stroke="#000000"><g fill="#ffd98f"><path d="M230.00687,204.77568c-1.78952,10.31448 -5.87598,9.56153 -16.99278,7.63281c-11.1168,-1.92873 -17.018,-3.67813 -15.22848,-13.99258c1.78952,-10.31448 15.20349,-14.29183 26.32029,-12.36312c11.1168,1.92873 7.69049,8.40845 5.90098,18.7229z"></path><path data-paper-data="{&quot;index&quot;:null}" d="M241.58168,188.89237c10.38457,1.80168 20.8612,9.92397 19.07169,20.23844c-1.78952,10.31448 -7.53838,10.04264 -17.92294,8.24096c-10.38457,-1.80168 -14.06591,-2.39643 -12.27638,-12.7109c1.78952,-10.31448 0.7431,-17.57018 11.12767,-15.7685z"></path></g><path fill="#000000" d="M239.28261,189.79848c-0.29796,1.71736 -3.79908,6.57763 -7.46337,5.94189c-3.66429,-0.63574 -6.10418,-6.52675 -5.80622,-8.2441c0.29796,-1.71736 3.50999,-2.59418 7.1743,-1.95844c3.66429,0.63574 6.39325,2.5433 6.0953,4.26067z"></path></g><path stroke-width="0.5" stroke="none" fill="#000000" d="M205.36995,193.32121c0.16554,-0.9541 0.95498,-1.61385 1.76327,-1.47361c0.8083,0.14023 1.32937,1.02735 1.16385,1.98145c-0.16554,0.9541 -0.95497,1.61385 -1.76327,1.47361c-0.8083,-0.14023 -1.32936,-1.02735 -1.16383,-1.98146z"></path><path stroke-width="0.5" stroke="none" fill="#000000" d="M207.98333,199.1132c0.16554,-0.9541 0.95497,-1.61385 1.76326,-1.47361c0.8083,0.14023 1.32937,1.02736 1.16385,1.98146c-0.16554,0.9541 -0.95497,1.61385 -1.76327,1.47361c-0.8083,-0.14023 -1.32935,-1.02735 -1.16382,-1.98145z"></path><path stroke-width="0.5" stroke="none" fill="#000000" d="M201.48374,198.34146c0.16554,-0.9541 0.95497,-1.61384 1.76327,-1.4736c0.8083,0.14023 1.32937,1.02735 1.16385,1.98145c-0.16554,0.9541 -0.95497,1.61385 -1.76328,1.47361c-0.8083,-0.14023 -1.32935,-1.02735 -1.16382,-1.98146z"></path><path stroke-width="0.5" stroke="none" fill="#000000" d="M252.73625,200.11543c0.16554,-0.9541 0.95497,-1.61384 1.76327,-1.4736c0.8083,0.14023 1.32937,1.02735 1.16385,1.98145c-0.16554,0.9541 -0.95497,1.61384 -1.76327,1.4736c-0.8083,-0.14023 -1.32937,-1.02735 -1.16385,-1.98145z"></path><path stroke-width="0.5" stroke="none" fill="#000000" d="M248.27161,203.25581c0.16554,-0.9541 0.95497,-1.61385 1.76327,-1.47361c0.8083,0.14023 1.32936,1.02736 1.16382,1.98146c-0.16554,0.9541 -0.95498,1.61385 -1.76327,1.47361c-0.80829,-0.14023 -1.32935,-1.02735 -1.16382,-1.98145z"></path><path stroke-width="0.5" stroke="none" fill="#000000" d="M253.82612,205.99902c0.16554,-0.9541 0.95497,-1.61385 1.76327,-1.47361c0.8083,0.14023 1.32935,1.02736 1.16382,1.98146c-0.16553,0.9541 -0.95497,1.61384 -1.76327,1.4736c-0.8083,-0.14023 -1.32937,-1.02735 -1.16385,-1.98145z"></path></g><path stroke-linecap="butt" stroke-width="NaN" stroke="none" fill-rule="nonzero" fill="#ffea00" fill-opacity="0.81569" d="M288.52339,177.8625c0,0 -12.05866,2.86038 -16.10435,6.20441c-5.08583,4.20379 -12.01048,17.03435 -12.01048,17.03435c0,0 -2.30027,-13.13801 -5.31602,-18.44574c-2.88599,-5.07934 -12.40631,-12.7456 -12.40631,-12.7456c0,0 9.01743,0.75 13.1067,-2.69819c4.95973,-4.18219 14.54744,-20.62052 14.54744,-20.62052c0,0 1.46196,14.79252 4.48554,19.99247c3.03736,5.22368 13.69747,11.2788 13.69747,11.2788z"></path><path stroke-linecap="butt" stroke-width="NaN" stroke="none" fill-rule="nonzero" fill="#ffea00" fill-opacity="0.81569" d="M236.92782,168.91088c0,0 -12.05864,2.86039 -16.10433,6.20442c-5.08584,4.2038 -12.01048,17.03435 -12.01048,17.03435c0,0 -2.30026,-13.13801 -5.31601,-18.44573c-2.88598,-5.07934 -12.40631,-12.7456 -12.40631,-12.7456c0,0 9.01743,0.74999 13.1067,-2.69819c4.95973,-4.18219 14.54743,-20.62051 14.54743,-20.62051c0,0 1.46197,14.79251 4.48554,19.99246c3.03736,5.22368 13.69746,11.2788 13.69746,11.2788z"></path><g stroke-width="2" stroke="#000000"><g stroke-linecap="butt" fill-rule="evenodd"><path fill="#efab00" d="M243.21474,284.10962c-13.11273,3.91508 -21.47098,-53.03499 12.21375,-62.21029c34.31162,-9.34518 62.48724,39.90673 62.48724,39.90673z"></path><path fill="#59c059" d="M336.07629,232.52321c0,0 -62.64987,38.44414 -74.32874,43.89161c-15.63941,7.29501 -22.6317,3.65369 -27.14965,-4.2748c-7.4735,-13.11466 3.77259,-16.97866 4.96308,-25.71852c1.1886,-8.74088 -10.7559,-18.81637 5.37553,-24.33709c13.49242,-4.61801 10.56787,-15.17141 17.04998,-17.94633c10.05365,-4.30349 15.27812,4.90133 23.80295,5.35578c8.05187,0.42901 9.89274,-7.36993 19.01256,-6.52873c7.81383,0.72176 12.57931,15.53481 22.69394,15.89033c16.48474,0.58076 8.58036,13.66774 8.58036,13.66774"></path><path fill="#e8511c" d="M246.35169,254.60969c-1.61982,-0.00689 -2.94226,-1.33987 -2.93393,-2.96014l0.0138,-3.25537c0.00689,-1.61982 1.33886,-2.94038 2.96013,-2.93393l8.66721,0.03619c1.6217,0.0079 2.94226,1.33987 2.93436,2.96157l-0.01422,3.25394c-0.00645,1.62127 -1.33886,2.94037 -2.96013,2.93392l-8.66721,-0.03618"></path><path fill="#c18500" d="M243.33054,254.26446c1.77058,-0.07271 4.6579,1.01471 6.71997,0.91787c-1.12554,14.34416 1.66011,26.93884 -4.35988,29.20788l-0.02887,0.00862c-4.8366,1.01958 -11.25097,-1.87614 -9.66384,-7.30236c0.94069,-3.22084 -2.77298,-5.75949 -2.96341,-9.08282c-0.28231,-4.78946 4.00482,-7.12284 5.45905,-8.0444c1.58998,-0.99354 2.21214,-5.59712 4.83698,-5.70478"></path><path fill="#e8511c" d="M247.41284,236.30653c-1.19978,1.08928 -3.07431,0.99808 -4.16259,-0.20358l-0.42101,-0.46229c-1.08828,-1.20166 -0.99622,-3.07331 0.20357,-4.16259l3.32198,-3.01209c1.20123,-1.08972 3.07432,-0.99808 4.16216,0.20212l0.42145,0.46373c1.08784,1.20022 0.99665,3.07475 -0.20357,4.16259l-3.32198,3.0121"></path><path fill="#e8511c" d="M323.1312,224.46328c-1.17829,-1.11347 -1.23195,-2.98878 -0.11704,-4.16748l1.13717,-1.20423c1.11347,-1.17828 2.98921,-1.2305 4.16705,-0.11848l4.45256,4.20781c1.17829,1.11347 1.23152,2.98733 0.11705,4.16748l-1.1376,1.20278c-1.11347,1.17828 -2.98878,1.23195 -4.16705,0.11848l-4.45214,-4.20636"></path><path fill="#e8511c" d="M284.02303,214.92315c-1.31086,0.95422 -3.16291,0.66451 -4.11714,-0.64635l-0.97524,-1.33916c-0.95567,-1.31042 -0.66595,-3.16248 0.64447,-4.11815l4.95038,-3.60834c1.31086,-0.95422 3.16334,-0.66307 4.11713,0.64635l0.9767,1.33874c0.95567,1.31042 0.66494,3.16436 -0.64592,4.11858l-4.95038,3.60834"></path><path fill="#ffbf00" d="M245.3797,283.46323c12.99148,-3.87887 -11.9683,-51.79085 34.61354,-69.68431c37.0827,-14.24448 56.09056,15.14932 63.11241,31.46928c1.83285,4.2589 -0.40968,9.1592 -4.84988,10.4849z"></path><path fill="#ffbf00" d="M263.30065,217.1806c-0.41861,0.12499 -0.88865,0.06723 -1.27919,-0.19821c-0.68824,-0.46741 -0.86593,-1.40483 -0.3981,-2.09163l5.73547,-8.43508c0.4697,-0.68579 1.40627,-0.86637 2.09306,-0.39853c0.68824,0.46741 0.86593,1.40482 0.39853,2.09306l-5.73589,8.43363c-0.20341,0.29813 -0.49342,0.50107 -0.81387,0.59674"></path><path fill="#ffbf00" d="M313.85958,207.00592c-0.08949,0.02672 -0.18114,0.04623 -0.27769,0.05461l-10.14621,1.04999c-0.82777,0.08679 -1.5675,-0.51617 -1.65386,-1.3425c-0.08535,-0.8282 0.51503,-1.57659 1.3425,-1.65386l10.14807,-1.04898c0.82777,-0.08679 1.5675,0.51618 1.65242,1.34294c0.07696,0.73166 -0.38536,1.3948 -1.06524,1.5978"></path><path fill="#ffbf00" d="M243.24224,262.72341c-0.32046,0.09568 -0.67526,0.08685 -1.00969,-0.05385l-9.41865,-3.91679c-0.7678,-0.31788 -1.1317,-1.1997 -0.81095,-1.96836c0.31975,-0.76679 1.19926,-1.13315 1.96937,-0.81282l9.41908,3.91823c0.7678,0.31788 1.1317,1.1997 0.81095,1.96837c-0.18007,0.43423 -0.54149,0.74023 -0.9601,0.86522"></path><path fill="#efab00" d="M320.88129,232.69359c-2.35435,0.70293 -3.45123,-2.95503 -1.09256,-3.65927c2.35579,-0.70337 3.45123,2.95503 1.09256,3.65927"></path><path fill="#efab00" d="M303.11848,241.56196c-2.35435,0.70293 -3.45123,-2.95503 -1.09256,-3.65927c2.35579,-0.70337 3.45123,2.95503 1.09256,3.65927"></path><path fill="#efab00" d="M305.35148,257.30486c-2.35435,0.70294 -3.45123,-2.95503 -1.09256,-3.65927c2.35579,-0.70337 3.45267,2.9546 1.09256,3.65927"></path><path fill="#efab00" d="M274.9036,268.38861c-2.35435,0.70294 -3.45123,-2.95503 -1.09256,-3.65926c2.35435,-0.70294 3.45123,2.95503 1.09256,3.65926"></path><path fill="#efab00" d="M269.03058,235.48976c-2.35435,0.70293 -3.45123,-2.95503 -1.09256,-3.65927c2.35435,-0.70293 3.45123,2.95503 1.09256,3.65927"></path><path fill="#efab00" d="M285.95397,221.40618c-2.35435,0.70293 -3.45165,-2.95647 -1.09297,-3.66071c2.35435,-0.70293 3.45165,2.95647 1.09297,3.66071"></path><path fill="#efab00" d="M284.03627,249.67297c-2.35435,0.70293 -3.45123,-2.95503 -1.09256,-3.65927c2.35435,-0.70293 3.45123,2.95503 1.09256,3.65927"></path><path fill="#efab00" d="M264.21109,257.16438c-2.35435,0.70294 -3.45123,-2.95503 -1.09256,-3.65927c2.35435,-0.70293 3.45123,2.95503 1.09256,3.65927"></path><path fill="#efab00" d="M328.8922,246.48875c-2.35435,0.70293 -3.45123,-2.95503 -1.09256,-3.65927c2.35435,-0.70293 3.45123,2.95503 1.09256,3.65927"></path><path fill="#efab00" d="M306.15406,222.41287c-2.35579,0.70337 -3.45267,-2.9546 -1.09256,-3.65927c2.35435,-0.70293 3.45123,2.95503 1.09256,3.65927"></path><path fill="#4ba04b" d="M247.13898,254.61109l1.41551,0.00186c-0.39469,0.25777 -0.87923,0.37256 -1.43768,0.39781c0.00883,-0.12841 0.01764,-0.25681 0.02217,-0.39966"></path></g><path stroke-linecap="butt" fill-rule="nonzero" fill="#ffa83a" data-paper-data="{&quot;index&quot;:null}" d="M325.79412,278.94132c0.95947,1.82408 9.11708,10.94396 18.56121,24.52554c-1.23132,1.6621 -1.95952,3.71937 -1.95952,5.94672c0,0.16766 0.00413,0.33436 0.01228,0.5h-4.52118l-1.4316,-0.11012l-1.55951,-0.38988h-11l-1.55951,0.38988l-1.60277,0.12329l-0.75565,0.25188l-2.22606,0.37101l-0.15182,0.06601l-0.16536,-0.00787l-2.22783,0.44557l-2.52169,0.36024h-1.78932l-0.61304,0.15326l-0.62731,-0.07604l-3.38223,0.42278h-0.87742l-1.55951,0.38988l-1.60277,0.12329l-1.42786,0.47595c-6.52933,-8.43228 -11.54023,-13.8604 -12.30794,-15.31992c-0.3647,-0.69333 -1.43127,-2.58824 -1.43127,-2.58824c0,0 -16.33788,-2.69809 -22.9095,-16.22509c-3.02127,-6.21895 -9.17734,-28.72067 9.53289,-40.63598c6.19736,-3.94669 13.88889,-7.2538 22.00304,-6.71865c9.88511,0.65195 20.12534,6.35309 25.62687,15.3154c8.09022,13.17945 2.72661,29.20577 2.72661,29.20577c0,0 1.20218,1.9681 1.74776,3.00531z"></path><path stroke-linecap="round" fill-rule="nonzero" fill="none" d="M292.76889,231.7985l12.12418,16.7599"></path><path stroke-linecap="round" fill-rule="nonzero" fill="none" d="M277.07876,236.79082l15.33352,21.75221"></path><path stroke-linecap="round" fill-rule="nonzero" fill="none" d="M265.66777,247.84522l10.34121,14.26374"></path></g><g stroke-linecap="butt" stroke-width="2" stroke="#000000" fill-rule="nonzero"><path fill="#f9dbb3" d="M260.62968,89.13315c-0.44432,8.63112 -13.16798,14.99157 -28.4191,14.20646c-15.25111,-0.78512 -27.25438,-8.4185 -26.81006,-17.04962c0.44432,-8.63113 20.38451,-42.71551 28.61123,-41.58005c9.11275,1.25774 27.06224,35.7921 26.61792,44.42323z"></path><path fill="#cc5252" d="M261.23634,88.57723c-0.44432,8.63112 -13.16798,14.99157 -28.41909,14.20646c-15.25111,-0.78512 -27.25439,-8.4185 -26.81007,-17.04961c0.12154,-2.36097 1.70184,-6.62644 4.10214,-11.55461c12.31224,-0.83385 45.37965,-0.20932 46.47814,-0.61094c2.91406,6.41518 4.79649,12.14135 4.64888,15.00872z"></path><path fill="#52cc67" d="M261.08758,88.4598c-0.44432,8.63112 -13.16798,14.99157 -28.41909,14.20645c-15.25111,-0.78512 -27.25439,-8.41849 -26.81007,-17.0496c0.07308,-1.41963 0.67359,-3.52785 1.66264,-6.05469c3.14878,0.56356 50.80978,1.09489 51.85452,1.21156c0.77317,2.49613 1.78376,6.29226 1.71199,7.68628z"></path><path fill="#f9dbb3" d="M190.57107,98.23791c-10.54761,-7.81217 -14.01932,-15.69703 -13.04893,-16.46662c2.67298,-2.11992 8.32703,2.47491 55.11733,4.37152c45.12531,1.82911 56.93443,-0.57306 59.99903,0.65895c1.38527,0.5569 -5.1142,8.09802 -15.6154,14.5178c-11.68417,7.14297 -76.55408,4.24938 -86.45204,-3.08164z"></path></g><g stroke-linecap="butt" stroke-width="2" stroke="#000000" fill-rule="nonzero"><path fill="#ffa83a" d="M175.47498,132.56151c-9.40505,0.48481 -10.80717,0.92327 -12.59382,-8.38311c-0.3801,-1.97995 -2.5759,-9.02023 -4.62999,-17.42231c-1.68975,-6.91183 -3.29911,-14.65587 -3.5891,-22.0337c-0.38712,-9.84902 -0.38682,-13.83234 2.30069,-15.97415c2.19082,-1.74598 5.86089,-2.85828 13.60229,-0.08579c15.09875,5.40752 41.39331,29.23877 38.13732,36.61085c-3.256,7.37206 -23.82235,26.80338 -33.22738,27.2882z"></path><path fill="#ffd07e" d="M172.4358,121.74302c0,0 -12.64408,-40.23274 -7.21463,-44.33981c4.59482,-3.47571 36.13424,25.45933 36.13424,25.45933c0,0 0.47326,2.2662 -10.38718,10.99612c-14.32498,11.51484 -18.53244,7.88436 -18.53244,7.88436z"></path></g></g><path stroke-linecap="butt" stroke-width="0" stroke="#000000" fill-rule="nonzero" fill="#ff6f00" d="M135.5,316v-272h209v272zM147.57501,307.29063l186,-1.5l1,-260.5l-187,1z"></path><path stroke-linecap="round" stroke-width="3.5" stroke="#000000" fill-rule="nonzero" fill="none" d="M200.6614,123.20499c0,0 5.7109,-9.39331 16.13952,-6.25381c10.13992,3.0526 9.52715,12.92047 9.52715,12.92047"></path><path stroke-linecap="round" stroke-width="3.5" stroke="#000000" fill-rule="nonzero" fill="none" data-paper-data="{&quot;index&quot;:null}" d="M251.34583,134.77984c0,0 2.55253,-9.5517 13.13698,-9.22632c10.88579,0.33465 13.31822,11.05528 13.31822,11.05528"></path><text style="mix-blend-mode: normal" text-anchor="start" font-weight="normal" font-family="&quot;Stencil&quot;, Sans Serif" stroke-dashoffset="0" stroke-dasharray="" stroke-miterlimit="10" stroke-linejoin="miter" stroke-linecap="butt" stroke-width="1" stroke="#ffffff" fill-rule="nonzero" fill="#000000" xml:space="preserve" font-size="40" transform="translate(136.38333,309.43375) scale(1.05302,1.05302)"><tspan dy="0" x="0">tacos</tspan></text></g></g></svg>